<svg width="76" height="77" viewBox="0 0 76 77" fill="none" xmlns="http://www.w3.org/2000/svg">
<circle cx="44.5" cy="49.9421" r="21.5" fill="#F5C9E9"/>
<path d="M10.5048 58.9373C7.93942 56.3719 9.64038 50.9902 8.32981 47.8393C7.01923 44.6883 2 41.9277 2 38.4421C2 34.9566 6.96346 32.3075 8.32981 29.045C9.69615 25.7825 7.93942 20.5123 10.5048 17.9469C13.0702 15.3816 18.4519 17.0825 21.6029 15.7719C24.7538 14.4614 27.5144 9.44214 31 9.44214C34.4856 9.44214 37.1346 14.4056 40.3971 15.7719C43.6596 17.1383 48.9298 15.3816 51.4952 17.9469C54.0606 20.5123 52.3596 25.8941 53.6702 29.045C54.9808 32.196 60 34.9566 60 38.4421C60 41.9277 55.0365 44.5768 53.6702 47.8393C52.3038 51.1018 54.0606 56.3719 51.4952 58.9373C48.9298 61.5027 43.5481 59.8018 40.3971 61.1123C37.2462 62.4229 34.4856 67.4421 31 67.4421C27.5144 67.4421 24.8654 62.4787 21.6029 61.1123C18.3404 59.746 13.0702 61.5027 10.5048 58.9373Z" stroke="#303030" stroke-width="3" stroke-linecap="round" stroke-linejoin="round"/>
<path d="M43 31.4421L26.9909 47.4421L19 39.4421" stroke="#303030" stroke-width="3" stroke-linecap="round" stroke-linejoin="round"/>
</svg>
