<svg width="70" height="61" viewBox="0 0 70 61" fill="none" xmlns="http://www.w3.org/2000/svg">
<circle cx="48.5" cy="38.9421" r="21.5" fill="#FAD7C9"/>
<path d="M25.5 35.4421C34.6127 35.4421 42 28.0548 42 18.9421C42 9.82944 34.6127 2.44214 25.5 2.44214C16.3873 2.44214 9 9.82944 9 18.9421C9 28.0548 16.3873 35.4421 25.5 35.4421Z" stroke="#303030" stroke-width="3" stroke-miterlimit="10"/>
<path d="M2 46.4421C4.87931 42.9975 8.47529 40.2277 12.5352 38.3273C16.5951 36.4269 21.0204 35.4421 25.5 35.4421C29.9796 35.4421 34.4049 36.4269 38.4648 38.3273C42.5247 40.2277 46.1207 42.9975 49 46.4421" stroke="#303030" stroke-width="3" stroke-linecap="round" stroke-linejoin="round"/>
<path d="M56.5 32.4421C58.9853 32.4421 61 30.6513 61 28.4421C61 26.233 58.9853 24.4421 56.5 24.4421C54.0147 24.4421 52 26.233 52 28.4421C52 30.6513 54.0147 32.4421 56.5 32.4421Z" stroke="#303030" stroke-width="3" stroke-linecap="round" stroke-linejoin="round"/>
<path d="M56 24.4421V20.4421" stroke="#303030" stroke-width="3" stroke-linecap="round" stroke-linejoin="round"/>
<path d="M53 26.4421L50 24.4421" stroke="#303030" stroke-width="3" stroke-linecap="round" stroke-linejoin="round"/>
<path d="M53 30.4421L50 32.4421" stroke="#303030" stroke-width="3" stroke-linecap="round" stroke-linejoin="round"/>
<path d="M56 32.4421V36.4421" stroke="#303030" stroke-width="3" stroke-linecap="round" stroke-linejoin="round"/>
<path d="M60 30.4421L63 32.4421" stroke="#303030" stroke-width="3" stroke-linecap="round" stroke-linejoin="round"/>
<path d="M60 26.4421L63 24.4421" stroke="#303030" stroke-width="3" stroke-linecap="round" stroke-linejoin="round"/>
</svg>
