<svg width="64" height="64" viewBox="0 0 64 64" fill="none" xmlns="http://www.w3.org/2000/svg">
<circle cx="42.3848" cy="42.3843" r="21.5" fill="#B1E8F2"/>
<path d="M27.8848 40.2593C34.7193 40.2593 40.2598 34.7188 40.2598 27.8843C40.2598 21.0498 34.7193 15.5093 27.8848 15.5093C21.0502 15.5093 15.5098 21.0498 15.5098 27.8843C15.5098 34.7188 21.0502 40.2593 27.8848 40.2593Z" stroke="#393939" stroke-width="3" stroke-linecap="round" stroke-linejoin="round"/>
<path d="M42.2445 11.668C42.8977 12.2695 43.5164 12.8883 44.1008 13.5242L51.1391 14.5297C52.2859 16.5213 53.1698 18.6531 53.7687 20.8719L49.4891 26.5695C49.4891 26.5695 49.5664 28.3227 49.4891 29.1992L53.7687 34.8969C53.1726 37.1166 52.2885 39.2487 51.1391 41.2391L44.1008 42.2445C44.1008 42.2445 42.8891 43.5078 42.2445 44.1008L41.2391 51.1391C39.2474 52.2859 37.1156 53.1698 34.8969 53.7687L29.1992 49.4891C28.3244 49.5664 27.4444 49.5664 26.5695 49.4891L20.8719 53.7687C18.6522 53.1726 16.52 52.2885 14.5297 51.1391L13.5242 44.1008C12.8883 43.4992 12.2695 42.8805 11.668 42.2445L4.62969 41.2391C3.48289 39.2474 2.59897 37.1156 2 34.8969L6.27969 29.1992C6.27969 29.1992 6.20234 27.4461 6.27969 26.5695L2 20.8719C2.5962 18.6522 3.48026 16.52 4.62969 14.5297L11.668 13.5242C12.2695 12.8883 12.8883 12.2695 13.5242 11.668L14.5297 4.62969C16.5213 3.48289 18.6531 2.59897 20.8719 2L26.5695 6.27969C27.4444 6.20233 28.3244 6.20233 29.1992 6.27969L34.8969 2C37.1166 2.5962 39.2487 3.48026 41.2391 4.62969L42.2445 11.668Z" stroke="#393939" stroke-width="3" stroke-linecap="round" stroke-linejoin="round"/>
</svg>
